<svg id="Layer_3" data-name="Layer 3" xmlns="http://www.w3.org/2000/svg" viewBox="0 0 287.74 287.74"><title>artstation</title><path d="M239.43,193.09,222,226.74,131.6,70.09c11.33,0,22-.32,32.66.12,6.15.25,10.82,3.78,14,9.22q29.38,51.42,58.84,102.75a53.14,53.14,0,0,1,2.38,5.35Z"/><path d="M61.46,190.71H169c1.23,0,3.05.6,3.59,1.52,6.61,11.12,13,22.3,19.77,34-1.58.1-2.7.23-3.8.23H94.12c-8,0-13.89-3.31-17.81-10.38-4-7.27-8.3-14.41-12.52-21.58a26.49,26.49,0,0,0-2.33-3Z"/><path d="M157,165H76.38l40.29-69.57Z"/></svg>