<svg id="Layer_2" data-name="Layer 2" xmlns="http://www.w3.org/2000/svg" xmlns:xlink="http://www.w3.org/1999/xlink" viewBox="0 0 320.9 320.9"><defs><style>.cls-1{fill:#231f20;}.cls-2{fill:url(#radial-gradient);}.cls-3{fill:url(#radial-gradient-2);}.cls-4{fill:url(#radial-gradient-3);}.cls-5{fill:#d1d3d4;}</style><radialGradient id="radial-gradient" cx="215.27" cy="173.81" r="28.53" gradientTransform="matrix(-0.87, 0.49, 0.49, 0.87, 392.78, -102.02)" gradientUnits="userSpaceOnUse"><stop offset="0" stop-color="#2484c6" stop-opacity="0.6"/><stop offset="0.98" stop-color="#2484c6"/></radialGradient><radialGradient id="radial-gradient-2" cx="222.77" cy="262.86" r="29.57" gradientTransform="matrix(-0.87, 0.49, 0.49, 0.87, 392.78, -102.02)" gradientUnits="userSpaceOnUse"><stop offset="0" stop-color="#2484c6" stop-opacity="0.7"/><stop offset="1" stop-color="#2484c6"/></radialGradient><radialGradient id="radial-gradient-3" cx="299.32" cy="280" r="137.1" gradientTransform="matrix(-0.87, 0.49, 0.49, 0.87, 392.78, -102.02)" gradientUnits="userSpaceOnUse"><stop offset="0.04" stop-color="#f6a1b3"/><stop offset="0.37" stop-color="#f4a1b3"/><stop offset="0.5" stop-color="#eda0b4" stop-opacity="0.99"/><stop offset="0.6" stop-color="#e29eb5" stop-opacity="0.97"/><stop offset="0.68" stop-color="#d19cb6" stop-opacity="0.95"/><stop offset="0.76" stop-color="#bb99b8" stop-opacity="0.92"/><stop offset="0.82" stop-color="#a095bb" stop-opacity="0.88"/><stop offset="0.88" stop-color="#8091be" stop-opacity="0.83"/><stop offset="0.94" stop-color="#5b8cc1" stop-opacity="0.78"/><stop offset="0.98" stop-color="#3286c5" stop-opacity="0.72"/><stop offset="1" stop-color="#2484c6" stop-opacity="0.7"/></radialGradient></defs><title>Bubble of Space</title><path class="cls-1" d="M129.55,349.5c43.06,77.3,141,105.16,218.3,62.1s105.15-141,62.09-218.28S269,88.15,191.66,131.21,86.49,272.19,129.55,349.5Zm20.1-11.19c-36.89-66.23-13-150.12,53.2-187,60.15-33.5,134.87-16.88,175.71,36.07a20.58,20.58,0,0,0,19.91,35.74c23.54,62.6-1.67,134.9-61.82,168.4C270.42,428.4,186.53,404.53,149.65,338.31Z" transform="translate(-109.3 -110.96)"/><path class="cls-2" d="M265.28,156.23c5-.75,12.55-3.83,13.33-7.86s-5.29-6.5-9-7.25c-1.78-.35-8.18-1.63-13,2.44-2.75,2.31-4.81,6.16-3.77,9.11C254.57,157.74,264.21,156.39,265.28,156.23ZM307,170.45c7.64-.2,18.71-4.12,19-11.44.23-7.1-9.86-13.42-15.88-15.71-2.86-1.09-13.19-5-19.81,1.39-3.76,3.64-6,10.35-3.7,16.09C290.58,170.67,305.34,170.49,307,170.45Z" transform="translate(-109.3 -110.96)"/><path class="cls-3" d="M314.55,261.47c12.59,3.21,27.73-1.05,35.86-13.44a32.55,32.55,0,0,0,4.71-23.77,33.33,33.33,0,0,0-6.81-14.84l-59.45,17.7a36.21,36.21,0,0,0,3.31,15.26A34.14,34.14,0,0,0,314.55,261.47Z" transform="translate(-109.3 -110.96)"/><path class="cls-4" d="M149.65,338.31c36.88,66.22,120.77,90.09,187,53.2C396.8,358,422,285.71,398.47,223.11a20.58,20.58,0,0,1-19.91-35.74c-40.84-53-115.56-69.57-175.71-36.07C136.62,188.19,112.76,272.08,149.65,338.31Zm129-189.94c-.78,4-8.34,7.11-13.33,7.86-1.07.16-10.71,1.51-12.49-3.56-1-2.95,1-6.8,3.77-9.11,4.85-4.07,11.25-2.79,13-2.44C273.32,141.87,279.36,144.46,278.61,148.37ZM307,170.45c-1.65,0-16.41.22-20.43-9.67-2.33-5.74-.06-12.45,3.7-16.09,6.62-6.4,16.95-2.48,19.81-1.39,6,2.29,16.11,8.61,15.88,15.71C325.7,166.33,314.63,170.25,307,170.45Zm-14.82,71.93a36.21,36.21,0,0,1-3.31-15.26l59.45-17.7a33.33,33.33,0,0,1,6.81,14.84A32.55,32.55,0,0,1,350.41,248c-8.13,12.39-23.27,16.65-35.86,13.44A34.14,34.14,0,0,1,292.17,242.38Z" transform="translate(-109.3 -110.96)"/><path class="cls-1" d="M218.81,247.93a20.69,20.69,0,1,0,8-28.14A20.72,20.72,0,0,0,218.81,247.93Z" transform="translate(-109.3 -110.96)"/><path class="cls-5" d="M307,170.45c7.64-.2,18.71-4.12,19-11.44.23-7.1-9.86-13.42-15.88-15.71-2.86-1.09-13.19-5-19.81,1.39-3.76,3.64-6,10.35-3.7,16.09C290.58,170.67,305.34,170.49,307,170.45Z" transform="translate(-109.3 -110.96)"/><path class="cls-5" d="M265.28,156.23c5-.75,12.55-3.83,13.33-7.86s-5.29-6.5-9-7.25c-1.78-.35-8.18-1.63-13,2.44-2.75,2.31-4.81,6.16-3.77,9.11C254.57,157.74,264.21,156.39,265.28,156.23Z" transform="translate(-109.3 -110.96)"/><path class="cls-1" d="M314.55,261.47c12.59,3.21,27.73-1.05,35.86-13.44a32.55,32.55,0,0,0,4.71-23.77,33.33,33.33,0,0,0-6.81-14.84l-59.45,17.7a36.21,36.21,0,0,0,3.31,15.26A34.14,34.14,0,0,0,314.55,261.47Z" transform="translate(-109.3 -110.96)"/></svg>