<svg id="Layer_3" data-name="Layer 3" xmlns="http://www.w3.org/2000/svg" viewBox="0 0 288.77 288.77"><title>facebook</title><path d="M159,61.37h7.25l15.94,1.16V91.4c-6.18,0-12.37-.43-18.52.11-5.15.44-8.26,3.88-8.67,10.1-.57,8.47-.15,17-.15,26H181c-1.16,10.69-2.26,20.91-3.39,31.32-6.82,0-13.4.1-20-.05-2.33-.06-3.15.57-3.14,3.63.12,24.71.07,49.42.07,74.12,0,1.63.08,3.26.11,4.9H127.1c0-.48.12-1,.12-1.44V161.41c0-.65-.1-1.31-.18-2.44H103.92V127.78h23.3v-4c.16-9.21.06-18.44.52-27.63.81-16.14,10-29.08,23.07-33C153.5,62.44,156.27,62,159,61.37Z"/></svg>