<svg id="Layer_3" data-name="Layer 3" xmlns="http://www.w3.org/2000/svg" viewBox="0 0 289.53 289.53"><title>linkedin</title><path d="M187.59,218.38v-5c0-15.07,0-30.14-.07-45.21a67.42,67.42,0,0,0-.93-10.81c-1.48-8.64-6.52-12.81-14.88-12.71-8.61.1-14.73,5.29-16.11,14a72.25,72.25,0,0,0-.88,10.79c-.09,15.07-.13,30.14,0,45.21,0,3.54-1.19,4.6-4.58,4.52-7.81-.18-15.63-.08-23.44,0-2.23,0-3.67-.4-3.67-3.2q.12-47.3.11-94.59a7.71,7.71,0,0,1,.42-1.56h29.27v12.16c5.39-7.57,11.79-12.13,19.95-14a43.17,43.17,0,0,1,27,2.16c11.14,4.75,16.13,14.34,17.53,25.64A291.76,291.76,0,0,1,219,175.28c.27,12.69-.08,25.4.15,38.09.08,4.11-1.29,5.23-5.25,5.1C205.31,218.19,196.69,218.38,187.59,218.38Z"/><path d="M73.36,119.92a19,19,0,0,1,3.15-.51c7.95,0,15.9,0,23.85,0,2.89,0,4.15.92,4.14,4.13q-.16,45.4,0,90.8c0,3-.68,4.25-3.95,4.16-8.08-.21-16.18-.1-24.27,0-2.08,0-3.42-.31-3.41-2.9q.11-47.07.1-94.15A6.65,6.65,0,0,1,73.36,119.92Z"/><path d="M107,89.35c-.07,9.85-8.9,18.62-18.49,18.36-9.79-.26-18.23-9.13-18-18.93s8.65-18.25,18.21-18.34C98.55,70.34,107,79.09,107,89.35Z"/></svg>