<svg id="Layer_3" data-name="Layer 3" xmlns="http://www.w3.org/2000/svg" viewBox="0 0 288.09 288.09"><defs><style>.cls-1{fill:#66fcf1;}</style></defs><title>github</title><path class="cls-1" d="M225.73,97.07A98.13,98.13,0,0,0,191.4,59.92a88.77,88.77,0,0,0-94.72,0A98.13,98.13,0,0,0,62.35,97.07,106.14,106.14,0,0,0,49.69,148.3q0,33.36,18,60t46.5,36.88q3.32.67,4.91-.92a5.41,5.41,0,0,0,1.6-4q0-.41-.06-7.18t-.07-11.82l-2.82.53a34.17,34.17,0,0,1-6.82.46,47.92,47.92,0,0,1-8.54-.93,18.39,18.39,0,0,1-8.23-4,16.86,16.86,0,0,1-5.4-8.18l-1.23-3a33.85,33.85,0,0,0-3.87-6.78,15.18,15.18,0,0,0-5.34-5.05l-.86-.67a8.91,8.91,0,0,1-1.6-1.59,7.61,7.61,0,0,1-1.11-1.86,1.15,1.15,0,0,1,.62-1.53,7.39,7.39,0,0,1,3.56-.6l2.46.4a17.18,17.18,0,0,1,6.08,3.19,20.92,20.92,0,0,1,6,6.91,22.84,22.84,0,0,0,6.81,8.3,13.74,13.74,0,0,0,8.05,2.86,32.39,32.39,0,0,0,7-.66,23.2,23.2,0,0,0,5.53-2q1.11-8.91,6-13.69A78.38,78.38,0,0,1,114.25,191a47.67,47.67,0,0,1-11.55-5.19,33.89,33.89,0,0,1-9.89-8.9,44.28,44.28,0,0,1-6.45-14A71.41,71.41,0,0,1,83.84,143q0-16.08,9.71-27.38-4.55-12.09.86-27.11c2.37-.8,5.9-.2,10.56,1.79a72.61,72.61,0,0,1,10.26,5.12q3.26,2.13,5.22,3.59a82.38,82.38,0,0,1,47.18,0l4.67-3.19A64.28,64.28,0,0,1,183.6,90q6.51-2.65,10-1.46,5.53,15,1,27.11,9.71,11.3,9.71,27.38a72.06,72.06,0,0,1-2.52,20,42.49,42.49,0,0,1-6.51,14,35,35,0,0,1-10,8.84A48,48,0,0,1,173.71,191a79.67,79.67,0,0,1-12.59,2.4q6.39,6,6.39,18.87v28a5.52,5.52,0,0,0,1.53,4c1,1.06,2.64,1.38,4.86.93Q202.4,235,220.39,208.3t18-60A106.14,106.14,0,0,0,225.73,97.07Z"/></svg>