<svg id="Layer_3" data-name="Layer 3" xmlns="http://www.w3.org/2000/svg" viewBox="0 0 289.53 289.53"><defs><style>.cls-1{fill:#66fcf1;}</style></defs><title>instagram</title><path class="cls-1" d="M145.72,241.78c-14.74,0-29.5.46-44.22-.1-29-1.1-50.11-22-50.83-51s-.82-57.82-.08-86.71c.79-30.82,21.5-51.55,52.21-52.3,29-.71,58.11-.59,87.14.05,28.37.62,49.86,21.81,50.61,50.28q1.17,44.63,0,89.31c-.71,28.31-22.29,49.37-50.61,50.38C175.22,242.21,160.46,241.78,145.72,241.78ZM66.35,145c.56,16.74.52,32.25,1.78,47.65C69.31,207,76.48,218.31,91,222.09c9.36,2.44,19.4,3,29.14,3.06,23.7.15,47.43,0,71.11-1,16.51-.67,28.19-11.29,31.13-27.56a143.25,143.25,0,0,0,1.77-25.45c0-23.42,0-46.86-1-70.25-.73-16.61-11.41-28.07-27.65-31a122.69,122.69,0,0,0-22.42-1.74c-24.28.07-48.6-.09-72.84,1-18.48.87-30.77,13.58-32.16,32C66.92,116.15,66.85,131.2,66.35,145Z"/><path class="cls-1" d="M96.45,146.63a48.85,48.85,0,0,1,48.86-49.15c27.68-.12,49.4,21.57,49.49,49.43a48.94,48.94,0,0,1-48.67,48.94C118.41,196.07,96.6,174.46,96.45,146.63Zm17-.32a32.26,32.26,0,0,0,32,32.5c17.45.1,32.28-14.49,32.29-31.79a32.3,32.3,0,0,0-32-32.48C128.24,114.43,113.44,129,113.48,146.31Z"/><path class="cls-1" d="M196.74,106.73a11.18,11.18,0,0,1-11.21-11.35,11.41,11.41,0,0,1,11.62-11.47,11.71,11.71,0,0,1,11.31,11.43A11.47,11.47,0,0,1,196.74,106.73Z"/></svg>